<?xml version="1.0" encoding="utf-8"?>
<svg viewBox="0 0 500 500" xmlns="http://www.w3.org/2000/svg" xmlns:bx="https://boxy-svg.com">
  <ellipse style="fill: rgb(216, 216, 216); stroke: rgb(0, 0, 0);" cx="220.07" cy="114.436" rx="25.822" ry="34.624"/>
  <path style="fill: rgb(216, 216, 216); stroke: rgb(0, 0, 0);" d="M 194.249 124.413 L 193.76 124.90199999999999 C 193.271 125.391 192.293 126.36899999999999 179.1865 150.52783333333332 C 166.08 174.68666666666664 140.845 222.02633333333333 162.55866666666665 244.91366666666667 C 184.27233333333334 267.801 252.93466666666666 266.236 274.5505 241.78383333333332 C 296.16633333333334 217.33166666666668 270.73566666666665 169.99233333333333 258.0203333333333 146.32266666666666 L 245.305 122.653" bx:d="M 194.249 124.413 U 191.315 127.347 U 115.61 269.366 U 321.597 264.671 U 245.305 122.653 1@221f9cbd"/>
  <path style="fill: rgb(216, 216, 216); stroke: rgb(0, 0, 0);" d="M 197.184 123.18 L 200.47016666666664 131.16400000000002 C 203.75633333333334 139.148 210.32866666666666 155.116 218.5445 154.93016666666668 C 226.76033333333336 154.74433333333334 236.6196666666667 138.40466666666666 241.54933333333335 130.23483333333334 L 246.479 122.065" bx:d="M 197.184 123.18 U 216.901 171.084 U 246.479 122.065 1@8bda12c1"/>
  <path style="fill: rgb(216, 216, 216); stroke: rgb(0, 0, 0);" d="M 193.45916666666668 126.36916666666666 C 191.58833333333334 128.32533333333333 187.84666666666666 132.23766666666668 175.93166666666664 141.5295 C 164.01666666666665 150.82133333333334 143.9283333333333 165.49266666666665 132.80100000000002 184.95666666666668 C 121.67366666666668 204.42066666666665 119.50733333333334 228.6773333333333 124.03699999999999 247.7501666666667 C 128.56666666666666 266.82300000000004 139.79233333333335 280.712 152.7905 280.6141666666667 C 165.78866666666667 280.5163333333333 180.55933333333334 266.4316666666667 191.39116666666666 243.25083333333336 C 202.22299999999998 220.07000000000002 209.11599999999999 187.793 209.11599999999999 166.47066666666666 C 209.11599999999999 145.14833333333334 202.22299999999998 134.78066666666666 198.77650000000003 129.59683333333334 C 195.33 124.413 195.33 124.413 195.33 124.413 C 195.33 124.413 195.33 124.413 193.45916666666668 126.36916666666666" bx:d="M 195.33 124.413 U 184.105 136.15 U 123.84 180.164 U 117.341 252.934 U 151.018 294.601 U 195.33 252.347 U 216.009 155.516 U 195.33 124.413 U 195.33 124.413 Z 1@2f759e2e"/>
  <path style="fill: rgb(216, 216, 216); stroke: rgb(0, 0, 0);" d="M 308.9835 278.5805 C 306.924 276.59499999999997 302.805 272.624 289.68833333333333 263.1926666666667 C 276.57166666666666 253.76133333333337 254.4573333333333 238.8696666666667 242.20783333333335 219.11316666666667 C 229.95833333333334 199.35666666666668 227.57366666666667 174.73533333333333 232.56033333333332 155.37583333333333 C 237.547 136.01633333333334 249.90499999999997 121.91866666666665 264.214 122.01800000000001 C 278.52299999999997 122.11733333333332 294.78299999999996 136.41366666666667 306.707 159.94283333333334 C 318.63100000000003 183.472 326.219 216.234 326.21900000000005 237.87666666666667 C 326.219 259.51933333333335 318.63100000000003 270.04266666666666 314.837 275.3043333333333 C 311.043 280.566 311.043 280.566 311.04300000000006 280.566 C 311.043 280.566 311.043 280.566 308.9835 278.5805" transform="matrix(-1, 0, 0, -1, 556.338316, 402.583522)" bx:d="M 311.043 280.566 U 298.686 268.653 U 232.343 223.978 U 225.189 150.114 U 262.263 107.821 U 311.043 150.71 U 333.807 248.996 U 311.043 280.566 U 311.043 280.566 Z 1@f72e6e8f"/>
  <polyline style="fill: rgb(216, 216, 216); stroke: rgb(0, 0, 0);" points="259.39 133.216 306.925 113.263 306.925 80.399"/>
  <polyline style="fill: rgb(216, 216, 216); stroke: rgb(0, 0, 0);" points="298.709 168.427 339.202 164.319 355.047 144.366 380.282 144.953"/>
  <polyline style="fill: rgb(216, 216, 216); stroke: rgb(0, 0, 0);" points="315.141 195.422 356.808 207.746 362.676 237.676 392.019 248.826"/>
  <polyline style="fill: rgb(216, 216, 216); stroke: rgb(0, 0, 0);" points="128.853 85.387 177.229 105.896 177.229 139.676" transform="matrix(-1, 0, 0, -1, 306.081996, 225.063002)"/>
  <polyline style="fill: rgb(216, 216, 216); stroke: rgb(0, 0, 0);" points="54.198 151.137 95.407 155.36 111.533 175.869 137.214 175.266" transform="matrix(-1, 0, 0, -1, 191.412017, 327.005987)"/>
  <polyline style="fill: rgb(216, 216, 216); stroke: rgb(0, 0, 0);" points="48.122 262.617 90.526 249.949 96.498 219.185 126.361 207.724" transform="matrix(-1, 0, 0, -1, 174.483, 470.340998)"/>
  <path style="fill: rgb(216, 216, 216); stroke: rgb(0, 0, 0);" d="M 219.484 79.812 L 220.07 55.164"/>
  <path style="fill: rgb(216, 216, 216); stroke: rgb(0, 0, 0);" d="M 238.556 122.849 C 231.221 123.044 216.549 123.435 208.236 123.826 C 199.922 124.217 197.965 124.609 199.628 132.042 C 201.291 139.476 206.572 153.951 209.996 160.309 C 213.419 166.667 214.984 164.906 219.288 164.515 C 223.591 164.124 230.634 165.102 235.524 158.353 C 240.415 151.604 243.153 137.129 244.523 129.891 C 245.892 122.653 245.892 122.653 238.556 122.849" bx:d="M 245.892 122.653 U 201.878 123.826 U 196.009 125 U 211.854 168.427 U 216.549 163.146 U 237.676 166.08 U 245.892 122.653 Z 1@f2d27d52"/>
</svg>